<svg xmlns="http://www.w3.org/2000/svg" xmlns:xlink="http://www.w3.org/1999/xlink" xmlns:s="https://github.com/nturley/netlistsvg" width="323" height="184.5">
  <style>svg {
    stroke:#000;
    fill:none;
  }
  text {
    fill:#000;
    stroke:none;
    font-size:10px;
    font-weight: bold;
    font-family: "Courier New", monospace;
  }
  .nodelabel {
    text-anchor: middle;
  }
  .inputPortLabel {
    text-anchor: end;
  }
  .splitjoinBody {
    fill:#000;
  }</style>
  <g s:type="generic" transform="translate(204,22)" s:width="30" s:height="40" id="cell_dlatch0">
    <text x="15" y="-4" class="nodelabel cell_dlatch0" s:attribute="ref">udp_dlatch$P</text>
    <rect width="30" height="40" s:generic="body" class="cell_dlatch0"/>
    <g transform="translate(0,10)" s:x="0" s:y="10" s:pid="in0" id="port_dlatch0~D">
      <text x="-3" y="-4" class="inputPortLabel cell_dlatch0">D</text>
    </g>
    <g transform="translate(0,30)" s:x="0" s:y="10" s:pid="in0" id="port_dlatch0~GATE">
      <text x="-3" y="-4" class="inputPortLabel cell_dlatch0">GATE</text>
    </g>
    <g transform="translate(30,10)" s:x="30" s:y="10" s:pid="out0" id="port_dlatch0~Q">
      <text x="5" y="-4" style="fill:#000; stroke:none" class="cell_dlatch0">Q</text>
    </g>
  </g>
  <g s:type="generic" transform="translate(90,22)" s:width="30" s:height="40" id="cell_mux_2to10">
    <text x="15" y="-4" class="nodelabel cell_mux_2to10" s:attribute="ref">udp_mux_2to1</text>
    <rect width="30" height="60" s:generic="body" class="cell_mux_2to10"/>
    <g transform="translate(0,10)" s:x="0" s:y="10" s:pid="in0" id="port_mux_2to10~A0">
      <text x="-3" y="-4" class="inputPortLabel cell_mux_2to10">A0</text>
    </g>
    <g transform="translate(0,30)" s:x="0" s:y="10" s:pid="in0" id="port_mux_2to10~A1">
      <text x="-3" y="-4" class="inputPortLabel cell_mux_2to10">A1</text>
    </g>
    <g transform="translate(0,50)" s:x="0" s:y="10" s:pid="in0" id="port_mux_2to10~S">
      <text x="-3" y="-4" class="inputPortLabel cell_mux_2to10">S</text>
    </g>
    <g transform="translate(30,10)" s:x="30" s:y="10" s:pid="out0" id="port_mux_2to10~X">
      <text x="5" y="-4" style="fill:#000; stroke:none" class="cell_mux_2to10">X</text>
    </g>
  </g>
  <g s:type="outputExt" transform="translate(281,22.5)" s:width="30" s:height="20" id="cell_Q">
    <text x="15" y="-4" class="nodelabel cell_Q" s:attribute="ref">Q</text>
    <s:alias val="$_outputExt_"/>
    <path d="M30,0 L30,20 L15,20 L0,10 L15,0 Z" class="cell_Q"/>
    <g s:x="0" s:y="10" s:pid="A"/>
  </g>
  <g s:type="inputExt" transform="translate(12,22.5)" s:width="30" s:height="20" id="cell_D">
    <text x="15" y="-4" class="nodelabel cell_D" s:attribute="ref">D</text>
    <s:alias val="$_inputExt_"/>
    <path d="M0,0 L0,20 L15,20 L30,10 L15,0 Z" class="cell_D"/>
    <g s:x="28" s:y="10" s:pid="Y"/>
  </g>
  <g s:type="inputExt" transform="translate(12,87.5)" s:width="30" s:height="20" id="cell_SCD">
    <text x="15" y="-4" class="nodelabel cell_SCD" s:attribute="ref">SCD</text>
    <s:alias val="$_inputExt_"/>
    <path d="M0,0 L0,20 L15,20 L30,10 L15,0 Z" class="cell_SCD"/>
    <g s:x="28" s:y="10" s:pid="Y"/>
  </g>
  <g s:type="inputExt" transform="translate(12,152.5)" s:width="30" s:height="20" id="cell_SCE">
    <text x="15" y="-4" class="nodelabel cell_SCE" s:attribute="ref">SCE</text>
    <s:alias val="$_inputExt_"/>
    <path d="M0,0 L0,20 L15,20 L30,10 L15,0 Z" class="cell_SCE"/>
    <g s:x="28" s:y="10" s:pid="Y"/>
  </g>
  <g s:type="inputExt" transform="translate(90,130)" s:width="30" s:height="20" id="cell_GATE">
    <text x="15" y="-4" class="nodelabel cell_GATE" s:attribute="ref">GATE</text>
    <s:alias val="$_inputExt_"/>
    <path d="M0,0 L0,20 L15,20 L30,10 L15,0 Z" class="cell_GATE"/>
    <g s:x="28" s:y="10" s:pid="Y"/>
  </g>
  <line x1="121" x2="204" y1="32.5" y2="32.5" class="net_7"/>
  <line x1="118" x2="154" y1="140" y2="140" class="net_6"/>
  <line x1="154" x2="154" y1="140" y2="52.5" class="net_6"/>
  <line x1="154" x2="204" y1="52.5" y2="52.5" class="net_6"/>
  <line x1="40" x2="90" y1="32.5" y2="32.5" class="net_3"/>
  <line x1="40" x2="52" y1="97.5" y2="97.5" class="net_4"/>
  <line x1="52" x2="52" y1="97.5" y2="52.5" class="net_4"/>
  <line x1="52" x2="90" y1="52.5" y2="52.5" class="net_4"/>
  <line x1="40" x2="62" y1="162.5" y2="162.5" class="net_5"/>
  <line x1="62" x2="62" y1="162.5" y2="72.5" class="net_5"/>
  <line x1="62" x2="90" y1="72.5" y2="72.5" class="net_5"/>
  <line x1="235" x2="281" y1="32.5" y2="32.5" class="net_2"/>
</svg>
